<?xml version="1.0" encoding="utf-8"?>
<!-- Generator: Adobe Illustrator 24.2.1, SVG Export Plug-In . SVG Version: 6.00 Build 0)  -->
<svg version="1.1" xmlns="http://www.w3.org/2000/svg" xmlns:xlink="http://www.w3.org/1999/xlink" x="0px" y="0px"
	 viewBox="0 0 500 500" style="enable-background:new 0 0 500 500;" xml:space="preserve">
<style type="text/css">
	.st0{fill:none;stroke:#000000;stroke-width:5;stroke-miterlimit:10;}
	.st1{fill:none;stroke:#000000;stroke-width:9;stroke-miterlimit:10;}
	.st2{fill:#FFDA3E;}
</style>
<g id="Layer_1">
	<circle class="st0" cx="254" cy="237" r="232"/>
	<circle class="st1" cx="254" cy="237" r="216"/>
	<circle cx="256.5" cy="238.5" r="13.5"/>
	<g id="XMLID_2_">
		<g>
			<path class="st2" d="M439.19,133.34c-72.24,153.71-180.74,100.9-180.74,100.9C293.03,101.56,439.19,133.34,439.19,133.34z"/>
		</g>
		<g>
			<path class="st0" d="M439.19,133.34c0,0-146.16-31.79-180.74,100.9C258.45,234.24,366.95,287.05,439.19,133.34z"/>
		</g>
	</g>
	<g id="XMLID_6_">
		<g>
			<path class="st2" d="M69.44,137.76C237.82,115.51,252,235.34,252,235.34C121.66,277.93,69.44,137.76,69.44,137.76z"/>
		</g>
		<g>
			<path class="st0" d="M69.44,137.76c0,0,52.22,140.17,182.55,97.58C252,235.34,237.82,115.51,69.44,137.76z"/>
		</g>
	</g>
	<g id="XMLID_3_">
		<g>
			<path class="st2" d="M258.45,241.71C388.78,199.12,441,339.29,441,339.29C272.63,361.54,258.45,241.71,258.45,241.71z"/>
		</g>
		<g>
			<path class="st0" d="M441,339.29c0,0-52.22-140.17-182.55-97.58C258.45,241.71,272.63,361.54,441,339.29z"/>
		</g>
	</g>
	<g id="XMLID_1_">
		<g>
			<path class="st2" d="M253,27c99,138,0,207,0,207C154,139.12,253,27,253,27z"/>
		</g>
		<g>
			<path class="st0" d="M253,27c0,0-99,112.12,0,207C253,234,352,165,253,27z"/>
		</g>
	</g>
	<g id="XMLID_5_">
		<g>
			<path class="st2" d="M71.25,343.71C143.49,190,252,242.81,252,242.81C217.42,375.49,71.25,343.71,71.25,343.71z"/>
		</g>
		<g>
			<path class="st0" d="M71.25,343.71c0,0,146.16,31.79,180.74-100.9C252,242.81,143.49,190,71.25,343.71z"/>
		</g>
	</g>
	<g id="XMLID_4_">
		<g>
			<path class="st2" d="M250.6,450c-96.03-140.09,4.43-206.95,4.43-206.95C351.97,340.01,250.6,450,250.6,450z"/>
		</g>
		<g>
			<path class="st0" d="M250.6,450c0,0,101.38-109.99,4.43-206.95C255.03,243.05,154.57,309.92,250.6,450z"/>
		</g>
	</g>
</g>
<g id="Layer_2">
</g>
</svg>
